<svg width="92" height="31" viewBox="0 0 92 31" fill="none" xmlns="http://www.w3.org/2000/svg">
<path d="M29.0224 18.2477L29.847 18.4833C29.2187 21.821 28.4334 22.9205 26.6663 22.9205C24.8993 22.9205 23.9176 21.6247 23.9176 19.4257C22.8182 21.8996 21.326 23.0776 19.2056 23.0776C16.7318 23.0776 15.0826 21.5069 15.0826 19.0723C15.0826 16.5985 16.7318 14.9886 20.5407 13.6928L23.9176 12.5147V9.09852C23.9176 6.23202 22.8182 4.85768 20.4621 4.85768C19.2056 4.85768 17.8705 5.25035 16.614 6.15349C16.8496 7.72417 18.2239 8.11684 18.2239 9.64825C18.2239 10.6692 17.4386 11.4153 16.3784 11.4153C15.1611 11.4153 14.3365 10.4729 14.3365 9.13778C14.3365 6.23202 17.7527 3.44406 21.2082 3.44406C24.3103 3.44406 25.9595 5.28962 25.9595 8.74511V19.0331C25.9595 20.4859 26.3915 21.1928 27.2553 21.1928C28.1585 21.1928 28.5904 20.4467 29.0224 18.2477ZM19.8339 21.232C21.5616 21.232 22.8574 20.1718 23.9176 17.8551V13.6928L21.2475 14.6352C18.5773 15.5776 17.3601 16.8341 17.3601 18.6797C17.3601 20.2503 18.3417 21.232 19.8339 21.232ZM45.4857 3.91527V4.81841C44.6218 4.93621 43.9936 5.56448 42.1873 8.23464L39.0852 12.8681L42.1087 17.6587C43.8758 20.4467 44.7789 21.5069 45.4857 21.6247V22.5278H39.4386V21.6247C40.6951 21.5854 41.1663 21.232 41.1663 20.643C41.1663 20.2896 40.97 19.7006 40.1061 18.3655L37.7894 14.753L35.1585 18.6797C34.4517 19.7006 34.2553 20.1325 34.2553 20.4467C34.2553 21.1535 35.0014 21.5854 36.5721 21.6247V22.5278H30.6428V21.6247C31.5067 21.5069 32.1349 20.8786 33.9412 18.2085L37.0433 13.575L34.0197 8.78438C32.2527 5.99642 31.3496 4.93621 30.6428 4.81841V3.91527H36.6899V4.81841C35.4333 4.85768 34.9621 5.21108 34.9621 5.80009C34.9621 6.15349 35.1585 6.74249 36.0224 8.07757L38.3391 11.6901L40.97 7.76344C41.6768 6.74249 41.8731 6.31056 41.8731 5.99642C41.8731 5.28961 41.1271 4.85768 39.5564 4.81841V3.91527H45.4857ZM74.0414 18.2477L74.866 18.4833C74.2377 21.821 73.4524 22.9205 71.6854 22.9205C69.9183 22.9205 68.9367 21.6247 68.9367 19.4257C67.8372 21.8996 66.345 23.0776 64.2246 23.0776C61.7508 23.0776 60.1016 21.5069 60.1016 19.0723C60.1016 16.5985 61.7508 14.9886 65.5597 13.6928L68.9367 12.5147V9.09852C68.9367 6.23202 67.8372 4.85768 65.4812 4.85768C64.2246 4.85768 62.8895 5.25035 61.633 6.15349C61.8686 7.72417 63.2429 8.11684 63.2429 9.64825C63.2429 10.6692 62.4576 11.4153 61.3974 11.4153C60.1801 11.4153 59.3555 10.4729 59.3555 9.13778C59.3555 6.23202 62.7717 3.44406 66.2272 3.44406C69.3293 3.44406 70.9785 5.28962 70.9785 8.74511V19.0331C70.9785 20.4859 71.4105 21.1928 72.2744 21.1928C73.1775 21.1928 73.6094 20.4467 74.0414 18.2477ZM64.8529 21.232C66.5806 21.232 67.8764 20.1718 68.9367 17.8551V13.6928L66.2665 14.6352C63.5964 15.5776 62.3791 16.8341 62.3791 18.6797C62.3791 20.2503 63.3607 21.232 64.8529 21.232ZM85.042 3.44406C88.7722 3.44406 91.2067 6.89956 91.2067 12.4755C91.2067 19.4257 88.458 23.0776 84.0603 23.0776C82.6467 23.0776 81.1938 22.4886 80.2121 21.5854V26.965C80.2121 29.2032 80.7226 29.6352 83.5106 29.7137V30.6168H76.0498V29.7137C77.8954 29.6352 78.1703 29.2425 78.1703 26.965V7.0959C78.1703 5.60375 77.8954 5.40741 76.0498 5.40741V4.66134L79.4268 3.67967H80.2121V6.82103C81.4687 4.50427 83.0001 3.44406 85.042 3.44406ZM84.2959 21.821C87.2409 21.821 88.9292 19.1901 88.9292 13.3001C88.9292 8.35244 87.1231 5.52522 84.61 5.52522C82.9216 5.52522 81.5865 6.38909 80.2121 8.27391V16.9519C80.2121 19.9362 81.7828 21.821 84.2959 21.821Z" fill="#232529"/>
<path d="M6.55483 4.46777C7.96356 4.18643 9.36677 3.89164 10.7833 3.60059C10.9428 3.56024 11.1027 3.52164 11.2619 3.48047C11.9152 3.31149 12.5693 3.14493 13.2267 2.98145C13.6285 2.88154 14.0357 3.12569 14.1359 3.52734C14.2358 3.92922 13.9908 4.33644 13.589 4.43652C12.9867 4.58629 12.3864 4.73871 11.7863 4.89355C11.7276 4.92331 11.6654 4.94912 11.5978 4.96289C11.4427 4.99449 11.2874 5.02766 11.132 5.05957C9.65018 5.43418 8.15362 5.77332 6.63882 6.07227L7.27847 18.2637C7.37094 20.0283 8.04146 20.8189 9.37417 20.749C10.5108 20.6894 11.1587 20.3019 12.2667 18.9463L12.881 19.4258C11.8883 21.4828 10.6834 22.4899 9.03726 22.5762C6.72468 22.6973 5.36177 21.4314 5.21792 18.6865L4.57729 6.48535C3.49228 6.70809 2.58409 6.8927 1.14175 7.08887C1.01708 7.10581 0.879599 7.1145 0.748193 7.10059C0.687897 7.09419 0.580835 7.07852 0.465967 7.02734C0.384594 6.99098 0.0648878 6.82995 0.007959 6.42676C-0.0482658 6.02699 0.209573 5.78363 0.274561 5.72754C0.368761 5.64627 0.465766 5.60091 0.521631 5.57715C0.643 5.52556 0.776859 5.49413 0.901514 5.47363C1.30176 5.40782 1.70004 5.33938 2.0978 5.27344C3.97108 4.6688 5.10864 2.79736 5.40054 0.432617L6.34097 0.382812L6.55483 4.46777Z" fill="#232529"/>
<path d="M51.2453 4.47113C52.6553 4.18962 54.0597 3.89421 55.4777 3.60297C55.6372 3.56263 55.797 3.524 55.9562 3.48285C56.6098 3.31385 57.2643 3.14732 57.922 2.98382C58.3238 2.88395 58.731 3.12811 58.8312 3.52972C58.9311 3.93159 58.6861 4.33884 58.2843 4.4389C57.6817 4.58869 57.081 4.74106 56.4806 4.89593C56.422 4.92565 56.3597 4.95152 56.2921 4.96527L55.8263 5.06195C54.3429 5.43684 52.8447 5.77553 51.3283 6.07465L51.9679 18.2661C52.0604 20.0306 52.7314 20.8213 54.0646 20.7514C55.2015 20.6917 55.8497 20.3042 56.9582 18.9487L57.5734 19.4272C56.5803 21.4845 55.3745 22.4922 53.7277 22.5786C51.4141 22.6998 50.0503 21.4338 49.9064 18.6889L49.2658 6.48773C48.1817 6.7102 47.2737 6.89523 45.8322 7.09125C45.7075 7.1082 45.57 7.11782 45.4386 7.10394C45.3783 7.09755 45.2712 7.08085 45.1564 7.02972C45.075 6.99336 44.7553 6.83251 44.6984 6.42914C44.6422 6.02988 44.8996 5.7874 44.965 5.7309C45.0592 5.6497 45.1562 5.60327 45.2121 5.57953C45.3333 5.52804 45.4674 5.49649 45.5919 5.47601C45.9899 5.41061 46.3859 5.34331 46.7814 5.27777C48.6581 4.67452 49.7978 2.80078 50.09 0.43402L51.0304 0.385192L51.2453 4.47113Z" fill="#232529"/>
<path d="M75.6562 27.0956C74.3195 26.9127 72.8308 26.8608 71.4737 26.79C67.9436 26.606 64.4256 26.557 60.8819 26.506C51.8064 26.3755 42.7336 26.1234 33.6529 26.1015C26.1824 26.0835 18.7813 26.3375 11.3347 26.5835C9.56154 26.642 4.24782 26.8233 6.00913 26.704C15.805 26.0401 26.2486 26.1074 36.1562 26.1134" stroke="url(#paint0_linear_387_10915)" stroke-width="1.3" stroke-linecap="round" stroke-linejoin="round"/>
<path d="M75.6562 27.0956C74.3195 26.9127 72.8308 26.8608 71.4737 26.79C67.9436 26.606 64.4256 26.557 60.8819 26.506C51.8064 26.3755 42.7336 26.1234 33.6529 26.1015C26.1824 26.0835 18.7813 26.3375 11.3347 26.5835C9.56154 26.642 4.24782 26.8233 6.00913 26.704C15.805 26.0401 26.2486 26.1074 36.1562 26.1134" stroke="url(#paint1_radial_387_10915)" stroke-width="1.3" stroke-linecap="round" stroke-linejoin="round"/>
<defs>
<linearGradient id="paint0_linear_387_10915" x1="75.6562" y1="26.4547" x2="5.65627" y2="26.4547" gradientUnits="userSpaceOnUse">
<stop stop-color="#FF8A30" stop-opacity="0.5"/>
<stop offset="1" stop-color="#FF8A30" stop-opacity="0.7"/>
</linearGradient>
<radialGradient id="paint1_radial_387_10915" cx="0" cy="0" r="1" gradientUnits="userSpaceOnUse" gradientTransform="translate(31.7003 27.0567) rotate(13.3732) scale(5.96523 17.7862)">
<stop stop-color="#FEEDE0" stop-opacity="0.8"/>
<stop offset="1" stop-color="#FEEDE0" stop-opacity="0"/>
</radialGradient>
</defs>
</svg>
