<svg width="300" height="300" viewBox="0 0 300 300" fill="none" xmlns="http://www.w3.org/2000/svg">
<rect x="5.74707" y="5.74707" width="4.27416" height="4.27416" fill="#D5DEE3"/>
<rect opacity="0.93" x="20.7067" y="5.74707" width="4.27416" height="4.27416" fill="#D5DEE3"/>
<rect x="35.6663" y="5.74707" width="4.27416" height="4.27416" fill="#D5DEE3"/>
<rect opacity="0.88" x="50.6257" y="5.74707" width="4.27416" height="4.27416" fill="#D5DEE3"/>
<rect x="65.5853" y="5.74707" width="4.27416" height="4.27416" fill="#D5DEE3"/>
<rect x="80.5449" y="5.74707" width="4.27416" height="4.27416" fill="#D5DEE3"/>
<rect opacity="0.87" x="95.5044" y="5.74707" width="4.27416" height="4.27416" fill="#D5DEE3"/>
<rect x="110.464" y="5.74707" width="4.27416" height="4.27416" fill="#D5DEE3"/>
<rect x="125.424" y="5.74707" width="4.27416" height="4.27416" fill="#D5DEE3"/>
<rect opacity="0.97" x="140.383" y="5.74707" width="4.27416" height="4.27416" fill="#D5DEE3"/>
<rect opacity="0.81" x="155.343" y="5.74707" width="4.27416" height="4.27416" fill="#D5DEE3"/>
<rect x="170.302" y="5.74707" width="4.27416" height="4.27416" fill="#D5DEE3"/>
<rect x="185.262" y="5.74707" width="4.27416" height="4.27416" fill="#D5DEE3"/>
<rect x="200.221" y="5.74707" width="4.27416" height="4.27416" fill="#D5DEE3"/>
<rect opacity="0.88" x="215.181" y="5.74707" width="4.27416" height="4.27416" fill="#D5DEE3"/>
<rect x="230.141" y="5.74707" width="4.27416" height="4.27416" fill="#D5DEE3"/>
<rect opacity="0.92" x="245.1" y="5.74707" width="4.27416" height="4.27416" fill="#D5DEE3"/>
<rect opacity="0.93" x="260.06" y="5.74707" width="4.27416" height="4.27416" fill="#D5DEE3"/>
<rect opacity="0.97" x="275.019" y="5.74707" width="4.27416" height="4.27416" fill="#D5DEE3"/>
<rect opacity="0.96" x="289.979" y="5.74707" width="4.27416" height="4.27416" fill="#D5DEE3"/>
<rect x="5.74707" y="20.7067" width="4.27416" height="4.27416" fill="#D5DEE3"/>
<rect opacity="0.81" x="20.7067" y="20.7067" width="4.27416" height="4.27416" fill="#D5DEE3"/>
<rect x="35.6663" y="20.7067" width="4.27416" height="4.27416" fill="#D5DEE3"/>
<rect opacity="0.87" x="50.6257" y="20.7067" width="4.27416" height="4.27416" fill="#D5DEE3"/>
<rect x="65.5853" y="20.7067" width="4.27416" height="4.27416" fill="#D5DEE3"/>
<rect x="80.5449" y="20.7067" width="4.27416" height="4.27416" fill="#D5DEE3"/>
<rect x="95.5044" y="20.7067" width="4.27416" height="4.27416" fill="#D5DEE3"/>
<rect x="110.464" y="20.7067" width="4.27416" height="4.27416" fill="#D5DEE3"/>
<rect x="125.424" y="20.7067" width="4.27416" height="4.27416" fill="#D5DEE3"/>
<rect x="140.383" y="20.7067" width="4.27416" height="4.27416" fill="#D5DEE3"/>
<rect opacity="0.91" x="155.343" y="20.7067" width="4.27416" height="4.27416" fill="#D5DEE3"/>
<rect opacity="0.83" x="170.302" y="20.7067" width="4.27416" height="4.27416" fill="#D5DEE3"/>
<rect x="185.262" y="20.7067" width="4.27416" height="4.27416" fill="#D5DEE3"/>
<rect x="200.221" y="20.7067" width="4.27416" height="4.27416" fill="#D5DEE3"/>
<rect opacity="0.95" x="215.181" y="20.7067" width="4.27416" height="4.27416" fill="#D5DEE3"/>
<rect x="230.141" y="20.7067" width="4.27416" height="4.27416" fill="#D5DEE3"/>
<rect opacity="0.94" x="245.1" y="20.7067" width="4.27416" height="4.27416" fill="#D5DEE3"/>
<rect opacity="0.91" x="260.06" y="20.7067" width="4.27416" height="4.27416" fill="#D5DEE3"/>
<rect x="275.019" y="20.7067" width="4.27416" height="4.27416" fill="#D5DEE3"/>
<rect x="289.979" y="20.7067" width="4.27416" height="4.27416" fill="#D5DEE3"/>
<rect x="5.74707" y="35.6663" width="4.27416" height="4.27416" fill="#D5DEE3"/>
<rect x="20.7067" y="35.6663" width="4.27416" height="4.27416" fill="#D5DEE3"/>
<rect x="35.6663" y="35.6663" width="4.27416" height="4.27416" fill="#24B0FF"/>
<rect opacity="0.85" x="50.6257" y="35.6663" width="4.27416" height="4.27416" fill="#D5DEE3"/>
<rect x="65.5853" y="35.6663" width="4.27416" height="4.27416" fill="#D5DEE3"/>
<rect opacity="0.87" x="80.5449" y="35.6663" width="4.27416" height="4.27416" fill="#D5DEE3"/>
<rect x="95.5044" y="35.6663" width="4.27416" height="4.27416" fill="#D5DEE3"/>
<rect x="110.464" y="35.6663" width="4.27416" height="4.27416" fill="#D5DEE3"/>
<rect opacity="0.97" x="125.424" y="35.6663" width="4.27416" height="4.27416" fill="#D5DEE3"/>
<rect x="140.383" y="35.6663" width="4.27416" height="4.27416" fill="#D5DEE3"/>
<rect x="155.343" y="35.6663" width="4.27416" height="4.27416" fill="#D5DEE3"/>
<rect x="170.302" y="35.6663" width="4.27416" height="4.27416" fill="#D5DEE3"/>
<rect x="185.262" y="35.6663" width="4.27416" height="4.27416" fill="#D5DEE3"/>
<rect x="200.221" y="35.6663" width="4.27416" height="4.27416" fill="#D5DEE3"/>
<rect opacity="0.9" x="215.181" y="35.6663" width="4.27416" height="4.27416" fill="#D5DEE3"/>
<rect opacity="0.85" x="230.141" y="35.6663" width="4.27416" height="4.27416" fill="#D5DEE3"/>
<rect x="245.1" y="35.6663" width="4.27416" height="4.27416" fill="#D5DEE3"/>
<rect opacity="0.8" x="260.06" y="35.6663" width="4.27416" height="4.27416" fill="#D5DEE3"/>
<rect x="275.019" y="35.6663" width="4.27416" height="4.27416" fill="#D5DEE3"/>
<rect opacity="0.83" x="289.979" y="35.6663" width="4.27416" height="4.27416" fill="#D5DEE3"/>
<rect opacity="0.99" x="5.74707" y="50.6257" width="4.27416" height="4.27416" fill="#D5DEE3"/>
<rect x="20.7067" y="50.6257" width="4.27416" height="4.27416" fill="#D5DEE3"/>
<rect opacity="0.85" x="35.6663" y="50.6257" width="4.27416" height="4.27416" fill="#D5DEE3"/>
<rect x="50.6257" y="50.6257" width="4.27416" height="4.27416" fill="#D5DEE3"/>
<rect x="65.5853" y="50.6257" width="4.27416" height="4.27416" fill="#D5DEE3"/>
<rect x="80.5449" y="50.6257" width="4.27416" height="4.27416" fill="#D5DEE3"/>
<rect opacity="0.88" x="95.5044" y="50.6257" width="4.27416" height="4.27416" fill="#D5DEE3"/>
<rect x="110.464" y="50.6257" width="4.27416" height="4.27416" fill="#D5DEE3"/>
<rect x="125.424" y="50.6257" width="4.27416" height="4.27416" fill="#D5DEE3"/>
<rect opacity="0.88" x="140.383" y="50.6257" width="4.27416" height="4.27416" fill="#24B0FF"/>
<rect opacity="0.81" x="155.343" y="50.6257" width="4.27416" height="4.27416" fill="#D5DEE3"/>
<rect opacity="0.93" x="170.302" y="50.6257" width="4.27416" height="4.27416" fill="#D5DEE3"/>
<rect x="185.262" y="50.6257" width="4.27416" height="4.27416" fill="#D5DEE3"/>
<rect x="200.221" y="50.6257" width="4.27416" height="4.27416" fill="#D5DEE3"/>
<rect x="215.181" y="50.6257" width="4.27416" height="4.27416" fill="#D5DEE3"/>
<rect x="230.141" y="50.6257" width="4.27416" height="4.27416" fill="#D5DEE3"/>
<rect opacity="0.88" x="245.1" y="50.6257" width="4.27416" height="4.27416" fill="#D5DEE3"/>
<rect opacity="0.96" x="260.06" y="50.6257" width="4.27416" height="4.27416" fill="#D5DEE3"/>
<rect opacity="0.88" x="275.019" y="50.6257" width="4.27416" height="4.27416" fill="#D5DEE3"/>
<rect x="289.979" y="50.6257" width="4.27416" height="4.27416" fill="#D5DEE3"/>
<rect opacity="0.9" x="5.74707" y="65.5853" width="4.27416" height="4.27416" fill="#D5DEE3"/>
<rect x="20.7067" y="65.5853" width="4.27416" height="4.27416" fill="#D5DEE3"/>
<rect x="35.6663" y="65.5853" width="4.27416" height="4.27416" fill="#D5DEE3"/>
<rect x="50.6257" y="65.5853" width="4.27416" height="4.27416" fill="#D5DEE3"/>
<rect opacity="0.96" x="65.5853" y="65.5853" width="4.27416" height="4.27416" fill="#D5DEE3"/>
<rect x="80.5449" y="65.5853" width="4.27416" height="4.27416" fill="#D5DEE3"/>
<rect opacity="0.89" x="95.5044" y="65.5853" width="4.27416" height="4.27416" fill="#D5DEE3"/>
<rect x="110.464" y="65.5853" width="4.27416" height="4.27416" fill="#D5DEE3"/>
<rect x="125.424" y="65.5853" width="4.27416" height="4.27416" fill="#D5DEE3"/>
<rect x="140.383" y="65.5853" width="4.27416" height="4.27416" fill="#D5DEE3"/>
<rect opacity="0.99" x="155.343" y="65.5853" width="4.27416" height="4.27416" fill="#D5DEE3"/>
<rect x="170.302" y="65.5853" width="4.27416" height="4.27416" fill="#D5DEE3"/>
<rect x="185.262" y="65.5853" width="4.27416" height="4.27416" fill="#D5DEE3"/>
<rect opacity="0.98" x="200.221" y="65.5853" width="4.27416" height="4.27416" fill="#D5DEE3"/>
<rect x="215.181" y="65.5853" width="4.27416" height="4.27416" fill="#D5DEE3"/>
<rect x="230.141" y="65.5853" width="4.27416" height="4.27416" fill="#D5DEE3"/>
<rect x="245.1" y="65.5853" width="4.27416" height="4.27416" fill="#24B0FF"/>
<rect x="260.06" y="65.5853" width="4.27416" height="4.27416" fill="#D5DEE3"/>
<rect x="275.019" y="65.5853" width="4.27416" height="4.27416" fill="#D5DEE3"/>
<rect opacity="0.98" x="289.979" y="65.5853" width="4.27416" height="4.27416" fill="#D5DEE3"/>
<rect x="5.74707" y="80.5449" width="4.27416" height="4.27416" fill="#D5DEE3"/>
<rect opacity="0.99" x="20.7067" y="80.5449" width="4.27416" height="4.27416" fill="#D5DEE3"/>
<rect opacity="0.87" x="35.6663" y="80.5449" width="4.27416" height="4.27416" fill="#D5DEE3"/>
<rect x="50.6257" y="80.5449" width="4.27416" height="4.27416" fill="#D5DEE3"/>
<rect x="65.5853" y="80.5449" width="4.27416" height="4.27416" fill="#D5DEE3"/>
<rect opacity="0.86" x="80.5449" y="80.5449" width="4.27416" height="4.27416" fill="#D5DEE3"/>
<rect opacity="0.97" x="95.5044" y="80.5449" width="4.27416" height="4.27416" fill="#D5DEE3"/>
<rect x="110.464" y="80.5449" width="4.27416" height="4.27416" fill="#D5DEE3"/>
<rect x="125.424" y="80.5449" width="4.27416" height="4.27416" fill="#D5DEE3"/>
<rect opacity="0.85" x="140.383" y="80.5449" width="4.27416" height="4.27416" fill="#D5DEE3"/>
<rect x="155.343" y="80.5449" width="4.27416" height="4.27416" fill="#D5DEE3"/>
<rect x="170.302" y="80.5449" width="4.27416" height="4.27416" fill="#D5DEE3"/>
<rect opacity="0.86" x="185.262" y="80.5449" width="4.27416" height="4.27416" fill="#D5DEE3"/>
<rect opacity="0.91" x="200.221" y="80.5449" width="4.27416" height="4.27416" fill="#D5DEE3"/>
<rect x="215.181" y="80.5449" width="4.27416" height="4.27416" fill="#D5DEE3"/>
<rect x="230.141" y="80.5449" width="4.27416" height="4.27416" fill="#D5DEE3"/>
<rect opacity="0.88" x="245.1" y="80.5449" width="4.27416" height="4.27416" fill="#D5DEE3"/>
<rect opacity="0.88" x="260.06" y="80.5449" width="4.27416" height="4.27416" fill="#D5DEE3"/>
<rect x="275.019" y="80.5449" width="4.27416" height="4.27416" fill="#D5DEE3"/>
<rect x="289.979" y="80.5449" width="4.27416" height="4.27416" fill="#D5DEE3"/>
<rect x="5.74707" y="95.5044" width="4.27416" height="4.27416" fill="#D5DEE3"/>
<rect x="20.7067" y="95.5044" width="4.27416" height="4.27416" fill="#D5DEE3"/>
<rect opacity="0.91" x="35.6663" y="95.5044" width="4.27416" height="4.27416" fill="#D5DEE3"/>
<rect opacity="0.99" x="50.6257" y="95.5044" width="4.27416" height="4.27416" fill="#D5DEE3"/>
<rect opacity="0.86" x="65.5853" y="95.5044" width="4.27416" height="4.27416" fill="#D5DEE3"/>
<rect x="80.5449" y="95.5044" width="4.27416" height="4.27416" fill="#D5DEE3"/>
<rect x="95.5044" y="95.5044" width="4.27416" height="4.27416" fill="#D5DEE3"/>
<rect x="110.464" y="95.5044" width="4.27416" height="4.27416" fill="#D5DEE3"/>
<rect x="125.424" y="95.5044" width="4.27416" height="4.27416" fill="#D5DEE3"/>
<rect x="140.383" y="95.5044" width="4.27416" height="4.27416" fill="#D5DEE3"/>
<rect x="155.343" y="95.5044" width="4.27416" height="4.27416" fill="#D5DEE3"/>
<rect x="170.302" y="95.5044" width="4.27416" height="4.27416" fill="#D5DEE3"/>
<rect opacity="0.87" x="185.262" y="95.5044" width="4.27416" height="4.27416" fill="#D5DEE3"/>
<rect x="200.221" y="95.5044" width="4.27416" height="4.27416" fill="#D5DEE3"/>
<rect x="215.181" y="95.5044" width="4.27416" height="4.27416" fill="#D5DEE3"/>
<rect opacity="0.82" x="230.141" y="95.5044" width="4.27416" height="4.27416" fill="#D5DEE3"/>
<rect x="245.1" y="95.5044" width="4.27416" height="4.27416" fill="#D5DEE3"/>
<rect opacity="0.82" x="260.06" y="95.5044" width="4.27416" height="4.27416" fill="#D5DEE3"/>
<rect x="275.019" y="95.5044" width="4.27416" height="4.27416" fill="#D5DEE3"/>
<rect x="289.979" y="95.5044" width="4.27416" height="4.27416" fill="#D5DEE3"/>
<rect opacity="0.96" x="5.74707" y="110.464" width="4.27416" height="4.27416" fill="#D5DEE3"/>
<rect x="20.7067" y="110.464" width="4.27416" height="4.27416" fill="#D5DEE3"/>
<rect opacity="0.98" x="35.6663" y="110.464" width="4.27416" height="4.27416" fill="#D5DEE3"/>
<rect x="50.6257" y="110.464" width="4.27416" height="4.27416" fill="#D5DEE3"/>
<rect opacity="0.94" x="65.5853" y="110.464" width="4.27416" height="4.27416" fill="#D5DEE3"/>
<rect opacity="0.87" x="80.5449" y="110.464" width="4.27416" height="4.27416" fill="#D5DEE3"/>
<rect x="95.5044" y="110.464" width="4.27416" height="4.27416" fill="#D5DEE3"/>
<rect opacity="0.86" x="110.464" y="110.464" width="4.27416" height="4.27416" fill="#D5DEE3"/>
<rect opacity="0.95" x="125.424" y="110.464" width="4.27416" height="4.27416" fill="#D5DEE3"/>
<rect x="140.383" y="110.464" width="4.27416" height="4.27416" fill="#D5DEE3"/>
<rect opacity="0.98" x="155.343" y="110.464" width="4.27416" height="4.27416" fill="#D5DEE3"/>
<rect opacity="0.81" x="170.302" y="110.464" width="4.27416" height="4.27416" fill="#D5DEE3"/>
<rect x="185.262" y="110.464" width="4.27416" height="4.27416" fill="#D5DEE3"/>
<rect opacity="0.97" x="200.221" y="110.464" width="4.27416" height="4.27416" fill="#D5DEE3"/>
<rect x="215.181" y="110.464" width="4.27416" height="4.27416" fill="#D5DEE3"/>
<rect x="230.141" y="110.464" width="4.27416" height="4.27416" fill="#D5DEE3"/>
<rect x="245.1" y="110.464" width="4.27416" height="4.27416" fill="#D5DEE3"/>
<rect opacity="0.98" x="260.06" y="110.464" width="4.27416" height="4.27416" fill="#D5DEE3"/>
<rect x="275.019" y="110.464" width="4.27416" height="4.27416" fill="#D5DEE3"/>
<rect opacity="0.84" x="289.979" y="110.464" width="4.27416" height="4.27416" fill="#D5DEE3"/>
<rect opacity="0.95" x="5.74707" y="125.424" width="4.27416" height="4.27416" fill="#D5DEE3"/>
<rect x="20.7067" y="125.424" width="4.27416" height="4.27416" fill="#D5DEE3"/>
<rect x="35.6663" y="125.424" width="4.27416" height="4.27416" fill="#D5DEE3"/>
<rect x="50.6257" y="125.424" width="4.27416" height="4.27416" fill="#D5DEE3"/>
<rect x="65.5853" y="125.424" width="4.27416" height="4.27416" fill="#D5DEE3"/>
<rect opacity="0.86" x="80.5449" y="125.424" width="4.27416" height="4.27416" fill="#D5DEE3"/>
<rect x="95.5044" y="125.424" width="4.27416" height="4.27416" fill="#D5DEE3"/>
<rect opacity="0.89" x="110.464" y="125.424" width="4.27416" height="4.27416" fill="#D5DEE3"/>
<rect x="125.424" y="125.424" width="4.27416" height="4.27416" fill="#D5DEE3"/>
<rect x="140.383" y="125.424" width="4.27416" height="4.27416" fill="#D5DEE3"/>
<rect x="155.343" y="125.424" width="4.27416" height="4.27416" fill="#D5DEE3"/>
<rect x="170.302" y="125.424" width="4.27416" height="4.27416" fill="#D5DEE3"/>
<rect x="185.262" y="125.424" width="4.27416" height="4.27416" fill="#D5DEE3"/>
<rect x="200.221" y="125.424" width="4.27416" height="4.27416" fill="#D5DEE3"/>
<rect opacity="0.89" x="215.181" y="125.424" width="4.27416" height="4.27416" fill="#D5DEE3"/>
<rect x="230.141" y="125.424" width="4.27416" height="4.27416" fill="#D5DEE3"/>
<rect opacity="0.93" x="245.1" y="125.424" width="4.27416" height="4.27416" fill="#D5DEE3"/>
<rect x="260.06" y="125.424" width="4.27416" height="4.27416" fill="#D5DEE3"/>
<rect x="275.019" y="125.424" width="4.27416" height="4.27416" fill="#D5DEE3"/>
<rect opacity="0.9" x="289.979" y="125.424" width="4.27416" height="4.27416" fill="#D5DEE3"/>
<rect x="5.74707" y="140.383" width="4.27416" height="4.27416" fill="#D5DEE3"/>
<rect opacity="0.8" x="20.7067" y="140.383" width="4.27416" height="4.27416" fill="#D5DEE3"/>
<rect x="35.6663" y="140.383" width="4.27416" height="4.27416" fill="#D5DEE3"/>
<rect x="50.6257" y="140.383" width="4.27416" height="4.27416" fill="#24B0FF"/>
<rect opacity="0.96" x="65.5853" y="140.383" width="4.27416" height="4.27416" fill="#D5DEE3"/>
<rect x="80.5449" y="140.383" width="4.27416" height="4.27416" fill="#D5DEE3"/>
<rect opacity="0.94" x="95.5044" y="140.383" width="4.27416" height="4.27416" fill="#D5DEE3"/>
<rect opacity="0.91" x="110.464" y="140.383" width="4.27416" height="4.27416" fill="#D5DEE3"/>
<rect x="125.424" y="140.383" width="4.27416" height="4.27416" fill="#D5DEE3"/>
<rect x="140.383" y="140.383" width="4.27416" height="4.27416" fill="#D5DEE3"/>
<rect opacity="0.83" x="155.343" y="140.383" width="4.27416" height="4.27416" fill="#D5DEE3"/>
<rect opacity="0.94" x="170.302" y="140.383" width="4.27416" height="4.27416" fill="#D5DEE3"/>
<rect opacity="0.83" x="185.262" y="140.383" width="4.27416" height="4.27416" fill="#D5DEE3"/>
<rect opacity="0.8" x="200.221" y="140.383" width="4.27416" height="4.27416" fill="#D5DEE3"/>
<rect x="215.181" y="140.383" width="4.27416" height="4.27416" fill="#D5DEE3"/>
<rect x="230.141" y="140.383" width="4.27416" height="4.27416" fill="#D5DEE3"/>
<rect opacity="0.97" x="245.1" y="140.383" width="4.27416" height="4.27416" fill="#D5DEE3"/>
<rect opacity="0.96" x="260.06" y="140.383" width="4.27416" height="4.27416" fill="#D5DEE3"/>
<rect opacity="0.81" x="275.019" y="140.383" width="4.27416" height="4.27416" fill="#D5DEE3"/>
<rect x="289.979" y="140.383" width="4.27416" height="4.27416" fill="#D5DEE3"/>
<rect opacity="0.87" x="5.74707" y="155.343" width="4.27416" height="4.27416" fill="#D5DEE3"/>
<rect x="20.7067" y="155.343" width="4.27416" height="4.27416" fill="#D5DEE3"/>
<rect x="35.6663" y="155.343" width="4.27416" height="4.27416" fill="#D5DEE3"/>
<rect opacity="0.96" x="50.6257" y="155.343" width="4.27416" height="4.27416" fill="#D5DEE3"/>
<rect opacity="0.99" x="65.5853" y="155.343" width="4.27416" height="4.27416" fill="#D5DEE3"/>
<rect x="80.5449" y="155.343" width="4.27416" height="4.27416" fill="#D5DEE3"/>
<rect x="95.5044" y="155.343" width="4.27416" height="4.27416" fill="#D5DEE3"/>
<rect x="110.464" y="155.343" width="4.27416" height="4.27416" fill="#D5DEE3"/>
<rect opacity="0.98" x="125.424" y="155.343" width="4.27416" height="4.27416" fill="#D5DEE3"/>
<rect opacity="0.88" x="140.383" y="155.343" width="4.27416" height="4.27416" fill="#D5DEE3"/>
<rect x="155.343" y="155.343" width="4.27416" height="4.27416" fill="#D5DEE3"/>
<rect x="170.302" y="155.343" width="4.27416" height="4.27416" fill="#D5DEE3"/>
<rect x="185.262" y="155.343" width="4.27416" height="4.27416" fill="#D5DEE3"/>
<rect x="200.221" y="155.343" width="4.27416" height="4.27416" fill="#24B0FF"/>
<rect opacity="0.85" x="215.181" y="155.343" width="4.27416" height="4.27416" fill="#D5DEE3"/>
<rect opacity="0.89" x="230.141" y="155.343" width="4.27416" height="4.27416" fill="#D5DEE3"/>
<rect x="245.1" y="155.343" width="4.27416" height="4.27416" fill="#D5DEE3"/>
<rect opacity="0.89" x="260.06" y="155.343" width="4.27416" height="4.27416" fill="#D5DEE3"/>
<rect x="275.019" y="155.343" width="4.27416" height="4.27416" fill="#D5DEE3"/>
<rect x="289.979" y="155.343" width="4.27416" height="4.27416" fill="#D5DEE3"/>
<rect opacity="0.95" x="5.74707" y="170.302" width="4.27416" height="4.27416" fill="#D5DEE3"/>
<rect x="20.7067" y="170.302" width="4.27416" height="4.27416" fill="#D5DEE3"/>
<rect opacity="0.99" x="35.6663" y="170.302" width="4.27416" height="4.27416" fill="#D5DEE3"/>
<rect opacity="0.91" x="50.6257" y="170.302" width="4.27416" height="4.27416" fill="#D5DEE3"/>
<rect opacity="0.97" x="65.5853" y="170.302" width="4.27416" height="4.27416" fill="#D5DEE3"/>
<rect x="80.5449" y="170.302" width="4.27416" height="4.27416" fill="#D5DEE3"/>
<rect opacity="0.82" x="95.5044" y="170.302" width="4.27416" height="4.27416" fill="#D5DEE3"/>
<rect x="110.464" y="170.302" width="4.27416" height="4.27416" fill="#D5DEE3"/>
<rect opacity="0.87" x="125.424" y="170.302" width="4.27416" height="4.27416" fill="#D5DEE3"/>
<rect opacity="0.85" x="140.383" y="170.302" width="4.27416" height="4.27416" fill="#D5DEE3"/>
<rect x="155.343" y="170.302" width="4.27416" height="4.27416" fill="#D5DEE3"/>
<rect opacity="0.83" x="170.302" y="170.302" width="4.27416" height="4.27416" fill="#D5DEE3"/>
<rect opacity="0.99" x="185.262" y="170.302" width="4.27416" height="4.27416" fill="#D5DEE3"/>
<rect opacity="0.82" x="200.221" y="170.302" width="4.27416" height="4.27416" fill="#D5DEE3"/>
<rect opacity="0.83" x="215.181" y="170.302" width="4.27416" height="4.27416" fill="#D5DEE3"/>
<rect x="230.141" y="170.302" width="4.27416" height="4.27416" fill="#D5DEE3"/>
<rect opacity="0.93" x="245.1" y="170.302" width="4.27416" height="4.27416" fill="#D5DEE3"/>
<rect opacity="0.95" x="260.06" y="170.302" width="4.27416" height="4.27416" fill="#D5DEE3"/>
<rect x="275.019" y="170.302" width="4.27416" height="4.27416" fill="#D5DEE3"/>
<rect x="289.979" y="170.302" width="4.27416" height="4.27416" fill="#D5DEE3"/>
<rect x="5.74707" y="185.262" width="4.27416" height="4.27416" fill="#D5DEE3"/>
<rect x="20.7067" y="185.262" width="4.27416" height="4.27416" fill="#D5DEE3"/>
<rect x="35.6663" y="185.262" width="4.27416" height="4.27416" fill="#D5DEE3"/>
<rect opacity="0.91" x="50.6257" y="185.262" width="4.27416" height="4.27416" fill="#D5DEE3"/>
<rect opacity="0.86" x="65.5853" y="185.262" width="4.27416" height="4.27416" fill="#D5DEE3"/>
<rect x="80.5449" y="185.262" width="4.27416" height="4.27416" fill="#D5DEE3"/>
<rect opacity="0.84" x="95.5044" y="185.262" width="4.27416" height="4.27416" fill="#D5DEE3"/>
<rect opacity="0.84" x="110.464" y="185.262" width="4.27416" height="4.27416" fill="#D5DEE3"/>
<rect opacity="0.87" x="125.424" y="185.262" width="4.27416" height="4.27416" fill="#D5DEE3"/>
<rect opacity="0.91" x="140.383" y="185.262" width="4.27416" height="4.27416" fill="#D5DEE3"/>
<rect x="155.343" y="185.262" width="4.27416" height="4.27416" fill="#D5DEE3"/>
<rect x="170.302" y="185.262" width="4.27416" height="4.27416" fill="#D5DEE3"/>
<rect opacity="0.86" x="185.262" y="185.262" width="4.27416" height="4.27416" fill="#D5DEE3"/>
<rect opacity="0.99" x="200.221" y="185.262" width="4.27416" height="4.27416" fill="#D5DEE3"/>
<rect opacity="0.93" x="215.181" y="185.262" width="4.27416" height="4.27416" fill="#D5DEE3"/>
<rect opacity="0.8" x="230.141" y="185.262" width="4.27416" height="4.27416" fill="#D5DEE3"/>
<rect opacity="0.97" x="245.1" y="185.262" width="4.27416" height="4.27416" fill="#D5DEE3"/>
<rect x="260.06" y="185.262" width="4.27416" height="4.27416" fill="#D5DEE3"/>
<rect opacity="0.93" x="275.019" y="185.262" width="4.27416" height="4.27416" fill="#D5DEE3"/>
<rect x="289.979" y="185.262" width="4.27416" height="4.27416" fill="#D5DEE3"/>
<rect x="5.74707" y="200.221" width="4.27416" height="4.27416" fill="#D5DEE3"/>
<rect x="20.7067" y="200.221" width="4.27416" height="4.27416" fill="#D5DEE3"/>
<rect opacity="0.98" x="35.6663" y="200.221" width="4.27416" height="4.27416" fill="#D5DEE3"/>
<rect opacity="0.91" x="50.6257" y="200.221" width="4.27416" height="4.27416" fill="#D5DEE3"/>
<rect x="65.5853" y="200.221" width="4.27416" height="4.27416" fill="#D5DEE3"/>
<rect opacity="0.81" x="80.5449" y="200.221" width="4.27416" height="4.27416" fill="#D5DEE3"/>
<rect opacity="0.96" x="95.5044" y="200.221" width="4.27416" height="4.27416" fill="#D5DEE3"/>
<rect opacity="0.83" x="110.464" y="200.221" width="4.27416" height="4.27416" fill="#D5DEE3"/>
<rect x="125.424" y="200.221" width="4.27416" height="4.27416" fill="#D5DEE3"/>
<rect opacity="0.92" x="140.383" y="200.221" width="4.27416" height="4.27416" fill="#D5DEE3"/>
<rect x="155.343" y="200.221" width="4.27416" height="4.27416" fill="#D5DEE3"/>
<rect opacity="0.81" x="170.302" y="200.221" width="4.27416" height="4.27416" fill="#D5DEE3"/>
<rect x="185.262" y="200.221" width="4.27416" height="4.27416" fill="#D5DEE3"/>
<rect x="200.221" y="200.221" width="4.27416" height="4.27416" fill="#D5DEE3"/>
<rect opacity="0.92" x="215.181" y="200.221" width="4.27416" height="4.27416" fill="#D5DEE3"/>
<rect x="230.141" y="200.221" width="4.27416" height="4.27416" fill="#D5DEE3"/>
<rect opacity="0.94" x="245.1" y="200.221" width="4.27416" height="4.27416" fill="#D5DEE3"/>
<rect opacity="0.98" x="260.06" y="200.221" width="4.27416" height="4.27416" fill="#D5DEE3"/>
<rect x="275.019" y="200.221" width="4.27416" height="4.27416" fill="#D5DEE3"/>
<rect x="289.979" y="200.221" width="4.27416" height="4.27416" fill="#D5DEE3"/>
<rect x="5.74707" y="215.181" width="4.27416" height="4.27416" fill="#D5DEE3"/>
<rect opacity="0.96" x="20.7067" y="215.181" width="4.27416" height="4.27416" fill="#D5DEE3"/>
<rect x="35.6663" y="215.181" width="4.27416" height="4.27416" fill="#D5DEE3"/>
<rect opacity="0.85" x="50.6257" y="215.181" width="4.27416" height="4.27416" fill="#D5DEE3"/>
<rect x="65.5853" y="215.181" width="4.27416" height="4.27416" fill="#D5DEE3"/>
<rect opacity="0.96" x="80.5449" y="215.181" width="4.27416" height="4.27416" fill="#D5DEE3"/>
<rect x="95.5044" y="215.181" width="4.27416" height="4.27416" fill="#D5DEE3"/>
<rect x="110.464" y="215.181" width="4.27416" height="4.27416" fill="#D5DEE3"/>
<rect opacity="0.99" x="125.424" y="215.181" width="4.27416" height="4.27416" fill="#D5DEE3"/>
<rect opacity="0.99" x="140.383" y="215.181" width="4.27416" height="4.27416" fill="#D5DEE3"/>
<rect opacity="0.92" x="155.343" y="215.181" width="4.27416" height="4.27416" fill="#D5DEE3"/>
<rect opacity="0.93" x="170.302" y="215.181" width="4.27416" height="4.27416" fill="#D5DEE3"/>
<rect x="185.262" y="215.181" width="4.27416" height="4.27416" fill="#D5DEE3"/>
<rect opacity="0.92" x="200.221" y="215.181" width="4.27416" height="4.27416" fill="#D5DEE3"/>
<rect x="215.181" y="215.181" width="4.27416" height="4.27416" fill="#D5DEE3"/>
<rect x="230.141" y="215.181" width="4.27416" height="4.27416" fill="#D5DEE3"/>
<rect opacity="0.91" x="245.1" y="215.181" width="4.27416" height="4.27416" fill="#D5DEE3"/>
<rect opacity="0.95" x="260.06" y="215.181" width="4.27416" height="4.27416" fill="#D5DEE3"/>
<rect x="275.019" y="215.181" width="4.27416" height="4.27416" fill="#D5DEE3"/>
<rect opacity="0.95" x="289.979" y="215.181" width="4.27416" height="4.27416" fill="#D5DEE3"/>
<rect opacity="0.94" x="5.74707" y="230.141" width="4.27416" height="4.27416" fill="#D5DEE3"/>
<rect opacity="0.83" x="20.7067" y="230.141" width="4.27416" height="4.27416" fill="#D5DEE3"/>
<rect opacity="0.86" x="35.6663" y="230.141" width="4.27416" height="4.27416" fill="#D5DEE3"/>
<rect opacity="0.83" x="50.6257" y="230.141" width="4.27416" height="4.27416" fill="#D5DEE3"/>
<rect x="65.5853" y="230.141" width="4.27416" height="4.27416" fill="#D5DEE3"/>
<rect opacity="0.87" x="80.5449" y="230.141" width="4.27416" height="4.27416" fill="#D5DEE3"/>
<rect x="95.5044" y="230.141" width="4.27416" height="4.27416" fill="#D5DEE3"/>
<rect x="110.464" y="230.141" width="4.27416" height="4.27416" fill="#D5DEE3"/>
<rect x="125.424" y="230.141" width="4.27416" height="4.27416" fill="#24B0FF"/>
<rect opacity="0.82" x="140.383" y="230.141" width="4.27416" height="4.27416" fill="#D5DEE3"/>
<rect x="155.343" y="230.141" width="4.27416" height="4.27416" fill="#D5DEE3"/>
<rect x="170.302" y="230.141" width="4.27416" height="4.27416" fill="#D5DEE3"/>
<rect x="185.262" y="230.141" width="4.27416" height="4.27416" fill="#D5DEE3"/>
<rect x="200.221" y="230.141" width="4.27416" height="4.27416" fill="#D5DEE3"/>
<rect x="215.181" y="230.141" width="4.27416" height="4.27416" fill="#D5DEE3"/>
<rect x="230.141" y="230.141" width="4.27416" height="4.27416" fill="#D5DEE3"/>
<rect opacity="0.96" x="245.1" y="230.141" width="4.27416" height="4.27416" fill="#D5DEE3"/>
<rect opacity="0.88" x="260.06" y="230.141" width="4.27416" height="4.27416" fill="#D5DEE3"/>
<rect x="275.019" y="230.141" width="4.27416" height="4.27416" fill="#D5DEE3"/>
<rect x="289.979" y="230.141" width="4.27416" height="4.27416" fill="#D5DEE3"/>
<rect opacity="0.95" x="5.74707" y="245.1" width="4.27416" height="4.27416" fill="#D5DEE3"/>
<rect x="20.7067" y="245.1" width="4.27416" height="4.27416" fill="#D5DEE3"/>
<rect opacity="0.96" x="35.6663" y="245.1" width="4.27416" height="4.27416" fill="#D5DEE3"/>
<rect x="50.6257" y="245.1" width="4.27416" height="4.27416" fill="#D5DEE3"/>
<rect x="65.5853" y="245.1" width="4.27416" height="4.27416" fill="#D5DEE3"/>
<rect x="80.5449" y="245.1" width="4.27416" height="4.27416" fill="#D5DEE3"/>
<rect x="95.5044" y="245.1" width="4.27416" height="4.27416" fill="#D5DEE3"/>
<rect x="110.464" y="245.1" width="4.27416" height="4.27416" fill="#D5DEE3"/>
<rect opacity="0.8" x="125.424" y="245.1" width="4.27416" height="4.27416" fill="#D5DEE3"/>
<rect x="140.383" y="245.1" width="4.27416" height="4.27416" fill="#D5DEE3"/>
<rect opacity="0.92" x="155.343" y="245.1" width="4.27416" height="4.27416" fill="#D5DEE3"/>
<rect opacity="0.93" x="170.302" y="245.1" width="4.27416" height="4.27416" fill="#D5DEE3"/>
<rect opacity="0.88" x="185.262" y="245.1" width="4.27416" height="4.27416" fill="#D5DEE3"/>
<rect x="200.221" y="245.1" width="4.27416" height="4.27416" fill="#D5DEE3"/>
<rect opacity="0.92" x="215.181" y="245.1" width="4.27416" height="4.27416" fill="#D5DEE3"/>
<rect opacity="0.84" x="230.141" y="245.1" width="4.27416" height="4.27416" fill="#D5DEE3"/>
<rect x="245.1" y="245.1" width="4.27416" height="4.27416" fill="#D5DEE3"/>
<rect x="260.06" y="245.1" width="4.27416" height="4.27416" fill="#D5DEE3"/>
<rect opacity="0.84" x="275.019" y="245.1" width="4.27416" height="4.27416" fill="#D5DEE3"/>
<rect opacity="0.8" x="289.979" y="245.1" width="4.27416" height="4.27416" fill="#D5DEE3"/>
<rect opacity="0.85" x="5.74707" y="260.06" width="4.27416" height="4.27416" fill="#D5DEE3"/>
<rect x="20.7067" y="260.06" width="4.27416" height="4.27416" fill="#D5DEE3"/>
<rect opacity="0.86" x="35.6663" y="260.06" width="4.27416" height="4.27416" fill="#D5DEE3"/>
<rect x="50.6257" y="260.06" width="4.27416" height="4.27416" fill="#D5DEE3"/>
<rect opacity="0.98" x="65.5853" y="260.06" width="4.27416" height="4.27416" fill="#D5DEE3"/>
<rect opacity="0.8" x="80.5449" y="260.06" width="4.27416" height="4.27416" fill="#D5DEE3"/>
<rect x="95.5044" y="260.06" width="4.27416" height="4.27416" fill="#D5DEE3"/>
<rect x="110.464" y="260.06" width="4.27416" height="4.27416" fill="#D5DEE3"/>
<rect x="125.424" y="260.06" width="4.27416" height="4.27416" fill="#D5DEE3"/>
<rect x="140.383" y="260.06" width="4.27416" height="4.27416" fill="#D5DEE3"/>
<rect opacity="0.96" x="155.343" y="260.06" width="4.27416" height="4.27416" fill="#D5DEE3"/>
<rect x="170.302" y="260.06" width="4.27416" height="4.27416" fill="#D5DEE3"/>
<rect opacity="0.8" x="185.262" y="260.06" width="4.27416" height="4.27416" fill="#D5DEE3"/>
<rect x="200.221" y="260.06" width="4.27416" height="4.27416" fill="#D5DEE3"/>
<rect x="215.181" y="260.06" width="4.27416" height="4.27416" fill="#D5DEE3"/>
<rect opacity="0.96" x="230.141" y="260.06" width="4.27416" height="4.27416" fill="#D5DEE3"/>
<rect opacity="0.99" x="245.1" y="260.06" width="4.27416" height="4.27416" fill="#24B0FF"/>
<rect x="260.06" y="260.06" width="4.27416" height="4.27416" fill="#D5DEE3"/>
<rect x="275.019" y="260.06" width="4.27416" height="4.27416" fill="#D5DEE3"/>
<rect opacity="0.86" x="289.979" y="260.06" width="4.27416" height="4.27416" fill="#D5DEE3"/>
<rect opacity="0.98" x="5.74707" y="275.019" width="4.27416" height="4.27416" fill="#D5DEE3"/>
<rect x="20.7067" y="275.019" width="4.27416" height="4.27416" fill="#D5DEE3"/>
<rect x="35.6663" y="275.019" width="4.27416" height="4.27416" fill="#24B0FF"/>
<rect opacity="0.81" x="50.6257" y="275.019" width="4.27416" height="4.27416" fill="#D5DEE3"/>
<rect x="65.5853" y="275.019" width="4.27416" height="4.27416" fill="#D5DEE3"/>
<rect x="80.5449" y="275.019" width="4.27416" height="4.27416" fill="#D5DEE3"/>
<rect opacity="0.8" x="95.5044" y="275.019" width="4.27416" height="4.27416" fill="#D5DEE3"/>
<rect x="110.464" y="275.019" width="4.27416" height="4.27416" fill="#D5DEE3"/>
<rect opacity="0.8" x="125.424" y="275.019" width="4.27416" height="4.27416" fill="#D5DEE3"/>
<rect x="140.383" y="275.019" width="4.27416" height="4.27416" fill="#D5DEE3"/>
<rect x="155.343" y="275.019" width="4.27416" height="4.27416" fill="#D5DEE3"/>
<rect opacity="0.88" x="170.302" y="275.019" width="4.27416" height="4.27416" fill="#D5DEE3"/>
<rect x="185.262" y="275.019" width="4.27416" height="4.27416" fill="#D5DEE3"/>
<rect x="200.221" y="275.019" width="4.27416" height="4.27416" fill="#D5DEE3"/>
<rect opacity="0.84" x="215.181" y="275.019" width="4.27416" height="4.27416" fill="#D5DEE3"/>
<rect opacity="0.97" x="230.141" y="275.019" width="4.27416" height="4.27416" fill="#D5DEE3"/>
<rect opacity="0.8" x="245.1" y="275.019" width="4.27416" height="4.27416" fill="#D5DEE3"/>
<rect x="260.06" y="275.019" width="4.27416" height="4.27416" fill="#D5DEE3"/>
<rect x="275.019" y="275.019" width="4.27416" height="4.27416" fill="#D5DEE3"/>
<rect x="289.979" y="275.019" width="4.27416" height="4.27416" fill="#D5DEE3"/>
<rect opacity="0.87" x="5.74707" y="289.979" width="4.27416" height="4.27416" fill="#D5DEE3"/>
<rect x="20.7067" y="289.979" width="4.27416" height="4.27416" fill="#D5DEE3"/>
<rect opacity="0.86" x="35.6663" y="289.979" width="4.27416" height="4.27416" fill="#D5DEE3"/>
<rect opacity="0.99" x="50.6257" y="289.979" width="4.27416" height="4.27416" fill="#D5DEE3"/>
<rect opacity="0.93" x="65.5853" y="289.979" width="4.27416" height="4.27416" fill="#D5DEE3"/>
<rect opacity="0.92" x="80.5449" y="289.979" width="4.27416" height="4.27416" fill="#D5DEE3"/>
<rect x="95.5044" y="289.979" width="4.27416" height="4.27416" fill="#D5DEE3"/>
<rect opacity="0.92" x="110.464" y="289.979" width="4.27416" height="4.27416" fill="#D5DEE3"/>
<rect opacity="0.94" x="125.424" y="289.979" width="4.27416" height="4.27416" fill="#D5DEE3"/>
<rect x="140.383" y="289.979" width="4.27416" height="4.27416" fill="#D5DEE3"/>
<rect x="155.343" y="289.979" width="4.27416" height="4.27416" fill="#D5DEE3"/>
<rect x="170.302" y="289.979" width="4.27416" height="4.27416" fill="#D5DEE3"/>
<rect opacity="0.82" x="185.262" y="289.979" width="4.27416" height="4.27416" fill="#D5DEE3"/>
<rect x="200.221" y="289.979" width="4.27416" height="4.27416" fill="#D5DEE3"/>
<rect opacity="0.89" x="215.181" y="289.979" width="4.27416" height="4.27416" fill="#D5DEE3"/>
<rect opacity="0.91" x="230.141" y="289.979" width="4.27416" height="4.27416" fill="#D5DEE3"/>
<rect x="245.1" y="289.979" width="4.27416" height="4.27416" fill="#D5DEE3"/>
<rect opacity="0.87" x="260.06" y="289.979" width="4.27416" height="4.27416" fill="#D5DEE3"/>
<rect x="275.019" y="289.979" width="4.27416" height="4.27416" fill="#D5DEE3"/>
<rect opacity="0.85" x="289.979" y="289.979" width="4.27416" height="4.27416" fill="#D5DEE3"/>
</svg>
